<svg xmlns="http://www.w3.org/2000/svg" viewBox="0 0 600 600" preserveAspectRatio="xMidYMid meet"><path fill="#5ce714" d="M 156.546875 300.890625 C 160 302.886719 161.691406 307.097656 160.375 311.023438 C 139.976562 371.695312 153.023438 432.8125 197.121094 483.121094 C 200.238281 486.675781 199.878906 492.082031 196.324219 495.195312 C 192.765625 498.308594 187.359375 497.953125 184.242188 494.398438 C 136.667969 440.117188 122.050781 371.292969 144.144531 305.574219 C 145.652344 301.097656 150.503906 298.683594 154.988281 300.1875 C 155.535156 300.371094 156.058594 300.609375 156.546875 300.890625 Z"/><path fill="#2d6d00" d="M 176.019531 228.402344 C 178.015625 231.855469 177.371094 236.347656 174.261719 239.089844 C 126.246094 281.441406 106.96875 340.894531 119.992188 406.492188 C 120.910156 411.128906 117.898438 415.628906 113.257812 416.550781 C 108.621094 417.472656 104.113281 414.464844 103.191406 409.824219 C 89.148438 339.042969 110.921875 272.132812 162.929688 226.257812 C 166.476562 223.128906 171.886719 223.46875 175.015625 227.011719 C 175.402344 227.449219 175.738281 227.917969 176.019531 228.402344 Z"/><path fill="#5ce714" d="M 229.148438 175.355469 C 229.148438 179.34375 226.34375 182.914062 222.28125 183.734375 C 159.511719 196.417969 113.074219 238.273438 91.53125 301.589844 C 90.011719 306.0625 85.148438 308.457031 80.667969 306.933594 C 76.191406 305.414062 73.796875 300.554688 75.324219 296.078125 C 98.570312 227.757812 150.898438 180.695312 218.890625 166.957031 C 223.523438 166.019531 228.042969 169.019531 228.980469 173.648438 C 229.09375 174.222656 229.148438 174.796875 229.148438 175.355469 Z"/><path fill="#2d6d00" d="M 301.695312 155.96875 C 299.703125 159.421875 295.488281 161.109375 291.558594 159.792969 C 230.851562 139.40625 169.703125 152.449219 119.363281 196.519531 C 115.808594 199.632812 110.398438 199.273438 107.285156 195.722656 C 104.171875 192.164062 104.523438 186.761719 108.082031 183.648438 C 162.394531 136.097656 231.253906 121.488281 297.007812 143.570312 C 301.492188 145.078125 303.90625 149.929688 302.398438 154.40625 C 302.214844 154.960938 301.976562 155.480469 301.695312 155.96875 Z"/><path fill="#5ce714" d="M 374.226562 175.429688 C 370.769531 177.425781 366.273438 176.78125 363.53125 173.675781 C 321.15625 125.6875 261.671875 106.421875 196.035156 119.433594 C 191.398438 120.355469 186.894531 117.34375 185.972656 112.703125 C 185.050781 108.070312 188.0625 103.566406 192.703125 102.644531 C 263.523438 88.609375 330.46875 110.367188 376.371094 162.351562 C 379.5 165.894531 379.164062 171.300781 375.617188 174.429688 C 375.179688 174.820312 374.710938 175.152344 374.226562 175.429688 Z"/><path fill="#2d6d00" d="M 427.296875 228.53125 C 423.304688 228.53125 419.734375 225.730469 418.914062 221.667969 C 406.222656 158.933594 364.347656 112.527344 300.992188 90.996094 C 296.515625 89.472656 294.121094 84.613281 295.648438 80.136719 C 297.167969 75.664062 302.027344 73.269531 306.507812 74.792969 C 374.867188 98.027344 421.953125 150.328125 435.703125 218.28125 C 436.636719 222.914062 433.636719 227.429688 429.003906 228.367188 C 428.433594 228.476562 427.863281 228.53125 427.296875 228.53125 Z"/><path fill="#5ce714" d="M 446.699219 301.039062 C 443.242188 299.046875 441.554688 294.835938 442.871094 290.90625 C 463.265625 230.234375 450.21875 169.117188 406.125 118.808594 C 403.007812 115.253906 403.367188 109.847656 406.921875 106.734375 C 410.480469 103.621094 415.886719 103.976562 419 107.53125 C 466.578125 161.8125 481.195312 230.636719 459.101562 296.355469 C 457.59375 300.832031 452.738281 303.246094 448.257812 301.742188 C 447.707031 301.558594 447.1875 301.320312 446.699219 301.039062 Z"/><path fill="#2d6d00" d="M 427.222656 373.527344 C 425.226562 370.074219 425.871094 365.582031 428.976562 362.839844 C 476.996094 320.488281 496.269531 261.035156 483.25 195.4375 C 482.332031 190.804688 485.34375 186.300781 489.984375 185.378906 C 494.621094 184.460938 499.128906 187.46875 500.046875 192.109375 C 514.09375 262.890625 492.320312 329.796875 440.3125 375.675781 C 436.765625 378.800781 431.355469 378.460938 428.222656 374.921875 C 427.839844 374.480469 427.507812 374.015625 427.222656 373.527344 Z"/><path fill="#5ce714" d="M 374.09375 426.574219 C 374.09375 422.585938 376.898438 419.015625 380.957031 418.195312 C 443.730469 405.511719 490.164062 363.65625 511.707031 300.339844 C 513.226562 295.867188 518.089844 293.472656 522.570312 294.996094 C 527.042969 296.515625 529.441406 301.375 527.914062 305.851562 C 504.667969 374.171875 452.339844 421.234375 384.351562 434.972656 C 379.71875 435.910156 375.199219 432.910156 374.261719 428.28125 C 374.152344 427.707031 374.09375 427.136719 374.09375 426.574219 Z"/><path fill="#2d6d00" d="M 301.542969 445.960938 C 303.539062 442.507812 307.753906 440.820312 311.683594 442.140625 C 372.386719 462.523438 433.539062 449.480469 483.875 405.410156 C 487.433594 402.296875 492.84375 402.65625 495.957031 406.210938 C 499.070312 409.765625 498.714844 415.167969 495.160156 418.28125 C 440.847656 465.832031 371.984375 480.441406 306.230469 458.359375 C 301.75 456.851562 299.335938 452 300.839844 447.523438 C 301.027344 446.972656 301.265625 446.449219 301.542969 445.960938 Z"/><path fill="#5ce714" d="M 229.019531 426.5 C 232.476562 424.503906 236.96875 425.152344 239.714844 428.253906 C 282.089844 476.242188 341.574219 495.507812 407.207031 482.496094 C 411.84375 481.578125 416.351562 484.589844 417.273438 489.226562 C 418.191406 493.859375 415.183594 498.367188 410.539062 499.285156 C 339.71875 513.324219 272.773438 491.5625 226.871094 439.582031 C 223.742188 436.039062 224.082031 430.628906 227.625 427.5 C 228.0625 427.113281 228.53125 426.78125 229.019531 426.5 Z"/><path fill="#2d6d00" d="M 175.945312 373.398438 C 179.933594 373.398438 183.507812 376.203125 184.328125 380.261719 C 197.015625 442.996094 238.894531 489.40625 302.246094 510.9375 C 306.722656 512.457031 309.121094 517.316406 307.59375 521.792969 C 306.074219 526.269531 301.214844 528.660156 296.730469 527.136719 C 228.375 503.902344 181.289062 451.601562 167.539062 383.648438 C 166.601562 379.015625 169.601562 374.5 174.234375 373.566406 C 174.8125 373.453125 175.378906 373.398438 175.945312 373.398438 Z"/></svg>